<?xml version="1.0" standalone="no"?><!DOCTYPE svg PUBLIC "-//W3C//DTD SVG 1.1//EN" "http://www.w3.org/Graphics/SVG/1.1/DTD/svg11.dtd"><svg t="1551929723216" class="icon" style="" viewBox="0 0 1024 1024" version="1.1" xmlns="http://www.w3.org/2000/svg" p-id="1869" xmlns:xlink="http://www.w3.org/1999/xlink" width="32" height="32"><defs><style type="text/css"></style></defs><path d="M923.548 336.855c-22.533-53.275-54.786-101.115-95.86-142.189-36.224-36.225-77.714-65.583-123.551-87.469v72.536c113.894 66.537 190.58 190.112 190.58 331.265 0 211.386-171.976 383.362-383.362 383.362S127.993 722.385 127.993 510.999c0-141.768 77.354-265.807 192.069-332.134v-72.372c-46.427 21.959-88.423 51.557-125.04 88.174-41.075 41.075-73.327 88.914-95.86 142.189-23.336 55.173-35.169 113.764-35.169 174.143s11.833 118.969 35.169 174.143c22.534 53.275 54.786 101.115 95.86 142.189s88.914 73.327 142.189 95.86c55.173 23.336 113.764 35.169 174.143 35.169s118.969-11.833 174.143-35.169c53.275-22.533 101.115-54.786 142.189-95.86s73.327-88.914 95.86-142.189c23.336-55.174 35.169-113.764 35.169-174.143s-11.831-118.97-35.167-174.144z" fill="#203de1" p-id="1870"></path><path d="M448.087 63.946h128.025v384.262H448.087z" fill="#203de1" p-id="1871"></path></svg>