<?xml version="1.0" standalone="no"?><!DOCTYPE svg PUBLIC "-//W3C//DTD SVG 1.1//EN" "http://www.w3.org/Graphics/SVG/1.1/DTD/svg11.dtd"><svg t="1551929551009" class="icon" style="" viewBox="0 0 1024 1024" version="1.1" xmlns="http://www.w3.org/2000/svg" p-id="1065" xmlns:xlink="http://www.w3.org/1999/xlink" width="32" height="32"><defs><style type="text/css"></style></defs><path d="M872.003855 795.512289L634.139759 557.648193a49.349398 49.349398 0 0 1 0-69.829398l237.864096-237.740723a63.660723 63.660723 0 0 0 6.292049-84.634217 61.686747 61.686747 0 0 0-91.543133-5.058313L546.914699 400.717108a49.349398 49.349398 0 0 1-69.829398 0L239.221205 162.853012a63.660723 63.660723 0 0 0-84.634217-6.292048 61.686747 61.686747 0 0 0-4.688193 91.543132L389.860241 487.942169a49.349398 49.349398 0 0 1 0 69.829397L151.996145 795.512289a63.660723 63.660723 0 0 0-6.292049 84.634217 61.686747 61.686747 0 0 0 91.543133 4.688193l239.838072-239.838072a49.349398 49.349398 0 0 1 69.829398 0l239.838072 239.838072a61.686747 61.686747 0 0 0 91.543133-4.688193 63.660723 63.660723 0 0 0-6.292049-84.634217z m-58.97253 45.648193L564.310361 592.192771a74.024096 74.024096 0 0 0-104.744096 0L210.968675 841.160482a12.337349 12.337349 0 1 1-17.395663-17.395663l248.59759-248.59759a74.024096 74.024096 0 0 0 0-104.744096L193.573012 222.072289a12.337349 12.337349 0 1 1 17.395663-17.395662l248.720964 248.350843a74.024096 74.024096 0 0 0 104.744096 0L813.031325 204.42988A12.337349 12.337349 0 0 1 830.426988 222.072289L581.829398 470.423133a74.024096 74.024096 0 0 0 0 104.744096l248.59759 248.59759a12.337349 12.337349 0 1 1-17.395663 17.395663z" fill="#203de1" p-id="1066"></path></svg>