<?xml version="1.0" standalone="no"?><!DOCTYPE svg PUBLIC "-//W3C//DTD SVG 1.1//EN" "http://www.w3.org/Graphics/SVG/1.1/DTD/svg11.dtd"><svg t="1551930052346" class="icon" style="" viewBox="0 0 1024 1024" version="1.1" xmlns="http://www.w3.org/2000/svg" p-id="2618" xmlns:xlink="http://www.w3.org/1999/xlink" width="32" height="32"><defs><style type="text/css"></style></defs><path d="M323.84 34.56a36.8 36.8 0 0 0-10.56 6.72 32 32 0 0 0 0 45.44 36.8 36.8 0 0 0 10.56 6.72 26.56 26.56 0 0 0 12.16 2.56 32 32 0 0 0 22.72-9.28A33.6 33.6 0 0 0 368 64a33.6 33.6 0 0 0-9.28-22.72A33.6 33.6 0 0 0 336 32a32 32 0 0 0-12.16 2.56zM386.24 179.84l75.52 96A32 32 0 0 0 512 236.16l-75.52-96a32 32 0 0 0-50.24 39.68zM537.28 371.84L647.36 512 310.72 940.16a32 32 0 0 0 50.24 39.68l352-448a32 32 0 0 0 0-39.68l-125.76-160a32 32 0 1 0-50.24 39.68z" fill="#203de1" p-id="2619"></path></svg>